<svg width="24" height="24" viewBox="0 0 24 24" fill="none" xmlns="http://www.w3.org/2000/svg">
  <rect x="1" y="4" width="22" height="16" rx="2" fill="#444a52"></rect>
  <path d="M7.944 7.224H11.909V8.043H7.944V7.224ZM12.858 7.237H17.59V8.069H12.858V7.237ZM8.178 6.054L9.101 6.288C8.62 7.64 7.788 8.94 6.93 9.772C6.748 9.616 6.358 9.356 6.124 9.239C7.008 8.472 7.749 7.289 8.178 6.054ZM13.248 6.067L14.171 6.288C13.794 7.536 13.118 8.745 12.39 9.525C12.208 9.356 11.818 9.096 11.584 8.966C12.325 8.264 12.923 7.198 13.248 6.067ZM8.919 7.848L9.738 7.549C10.089 8.082 10.492 8.836 10.648 9.291L9.79 9.642C9.647 9.161 9.27 8.407 8.919 7.848ZM14.249 7.822L15.055 7.497C15.484 8.056 15.991 8.823 16.199 9.343L15.354 9.72C15.159 9.213 14.691 8.407 14.249 7.822ZM10.05 13.828H13.989V14.543H10.05V13.828ZM6.878 11.111H7.827V18.027H6.878V11.111ZM10.05 10.019H16.667V10.89H10.05V10.019ZM7.463 9.993L8.178 9.512C8.737 9.98 9.374 10.643 9.673 11.098L8.919 11.631C8.646 11.176 8.009 10.474 7.463 9.993ZM16.16 10.019H17.109V16.87C17.109 17.416 16.992 17.676 16.602 17.819C16.212 17.962 15.575 17.975 14.587 17.962C14.548 17.715 14.418 17.351 14.275 17.104C15.003 17.13 15.705 17.13 15.887 17.117C16.095 17.104 16.16 17.052 16.16 16.87V10.019ZM10.492 12.736V15.713H13.56V12.736H10.492ZM9.647 11.969H14.431V16.467H9.647V11.969Z" fill="#cdd1d5" fill-opacity="0.87"></path>
</svg>