<svg viewBox="0 0 24 24" fill="none" xmlns="http://www.w3.org/2000/svg">
  <rect x="1" y="4" width="22" height="16" rx="2" fill="#444a52"></rect>
  <path d="M13.846 6.08L14.704 6.288C14.249 7.588 13.469 8.81 12.598 9.616C12.455 9.46 12.117 9.135 11.922 8.992C12.754 8.277 13.443 7.211 13.846 6.08ZM16.173 7.653L17.083 7.757C16.459 10.305 14.86 11.748 12.546 12.632C12.429 12.437 12.13 12.086 11.935 11.917C14.184 11.202 15.666 9.902 16.173 7.653ZM13.521 7.38H17.85V8.16H13.131L13.521 7.38ZM7.788 6.041L8.633 6.249C8.204 7.185 7.476 8.108 6.787 8.719C6.644 8.576 6.28 8.329 6.072 8.225C6.787 7.666 7.424 6.873 7.788 6.041ZM7.619 6.886H12.299V7.562H7.281L7.619 6.886ZM13.794 7.991C14.457 9.954 15.991 11.397 18.162 11.956C17.967 12.151 17.707 12.502 17.577 12.749C15.315 12.047 13.794 10.435 13.027 8.173L13.794 7.991ZM11.48 15.31H12.442V18.066H11.48V15.31ZM11.051 12.021L11.87 12.424C11.233 12.97 10.427 13.529 9.803 13.906L9.153 13.542C9.777 13.139 10.596 12.489 11.051 12.021ZM13.534 12.528L14.353 12.996C13.092 13.88 11.363 14.881 10.037 15.505L9.426 15.089C10.765 14.439 12.507 13.347 13.534 12.528ZM7.645 13.503L8.308 12.97C9.257 13.36 10.479 13.997 11.129 14.478L10.414 15.076C9.829 14.608 8.607 13.932 7.645 13.503ZM13.937 14.166L14.587 13.698C15.692 14.205 17.07 15.011 17.772 15.622L17.083 16.155C16.42 15.557 15.055 14.712 13.937 14.166ZM13.742 16.376L14.431 15.843C15.523 16.181 16.94 16.792 17.694 17.286L16.953 17.871C16.264 17.403 14.86 16.753 13.742 16.376ZM6.332 14.959C8.763 14.959 12.728 14.907 16.472 14.816L16.42 15.531C12.767 15.635 8.867 15.739 6.371 15.778L6.332 14.959ZM9.335 15.882L10.193 16.22C9.309 16.87 7.944 17.507 6.852 17.897C6.683 17.728 6.345 17.39 6.124 17.234C7.268 16.922 8.542 16.415 9.335 15.882ZM7.294 8.173H8.074C7.879 9.434 7.58 11.072 7.346 12.06L6.553 11.969C6.8 10.981 7.112 9.369 7.294 8.173ZM9.166 8.381H9.868C9.777 9.317 9.621 10.513 9.478 11.254L8.776 11.228C8.919 10.461 9.088 9.291 9.166 8.381ZM7.58 8.173H11.363V8.758H7.58V8.173ZM6.085 9.499H12.52V10.11H6.085V9.499ZM7.086 10.929H12.507V11.527H7.086V10.929ZM11.103 8.173H11.857C11.857 8.173 11.844 8.394 11.831 8.524C11.675 11.046 11.493 11.982 11.194 12.307C10.999 12.502 10.804 12.593 10.505 12.606C10.258 12.619 9.816 12.619 9.374 12.58C9.361 12.398 9.283 12.112 9.179 11.943C9.634 11.995 10.037 11.995 10.206 11.995C10.375 11.995 10.466 11.982 10.57 11.865C10.791 11.631 10.947 10.721 11.103 8.29V8.173Z" fill="cdd1d5" fill-opacity="0.87"></path>
</svg>